<?xml version="1.0" encoding="UTF-8"?>
<svg id="a" data-name="Layer 1" xmlns="http://www.w3.org/2000/svg" viewBox="0 0 300 70">
  <defs>
    <style>
      .b {
        fill: #1b3360;
      }

      .b, .c, .d, .e, .f {
        stroke-width: 0px;
      }

      .c {
        fill: #1b3460;
      }

      .d {
        fill: #b41e44;
      }

      .e {
        fill: #fff;
      }

      .f {
        fill: #e3ded4;
      }
    </style>
  </defs>
  <g>
    <path class="b" d="M97,56.4l-7.5-16.7c-.1-.2-.2-.2-.4-.2h-5.6c-.2,0-.3.1-.3.3v16.5c0,.2-.1.4-.2.5s-.3.2-.5.2h-7.1c-.2,0-.4-.1-.5-.2-.1-.1-.2-.3-.2-.5V15.5c0-.2.1-.4.2-.5s.3-.2.5-.2h17.2c2.6,0,4.8.5,6.8,1.6,1.9,1,3.5,2.5,4.5,4.5s1.6,4.2,1.6,6.7c0,2.7-.7,5.1-2,7-1.4,2-3.3,3.3-5.7,4.1-.2.1-.3.2-.2.4l8.2,17.1c.1.2.1.3.1.4,0,.3-.2.5-.7.5h-7.4c-.4-.2-.7-.3-.8-.7ZM83.2,22.3v10.3c0,.2.1.3.3.3h7.9c1.7,0,3.1-.5,4.1-1.5,1.1-1,1.6-2.3,1.6-3.9s-.5-2.9-1.6-3.9-2.4-1.5-4.1-1.5h-7.9c-.2-.1-.3,0-.3.2Z"/>
    <path class="b" d="M140.8,21.8c-.1.1-.3.2-.5.2h-19.8c-.2,0-.3.1-.3.3v9.3c0,.2.1.3.3.3h13c.2,0,.4.1.5.2.1.1.2.3.2.5v5.8c0,.2-.1.4-.2.5-.1.1-.3.2-.5.2h-13c-.2,0-.3.1-.3.3v9.8c0,.2.1.3.3.3h19.8c.2,0,.4.1.5.2.1.1.2.3.2.5v5.8c0,.2-.1.4-.2.5-.1.1-.3.2-.5.2h-27.9c-.2,0-.4-.1-.5-.2-.1-.1-.2-.3-.2-.5V15.5c0-.2.1-.4.2-.5s.3-.2.5-.2h27.9c.2,0,.4.1.5.2.1.1.2.3.2.5v5.8c0,.2-.1.4-.2.5Z"/>
    <path class="b" d="M171.4,14.9c.1-.1.3-.2.5-.2h7.1c.2,0,.4.1.5.2.1.1.2.3.2.5v40.8c0,.2-.1.4-.2.5-.1.1-.3.2-.5.2h-6.8c-.4,0-.7-.2-.8-.5l-15.6-25.8c-.1-.1-.2-.2-.2-.2-.1,0-.1.1-.1.3l.1,25.4c0,.2-.1.4-.2.5-.1.1-.3.2-.5.2h-7.1c-.2,0-.4-.1-.5-.2-.1-.1-.2-.3-.2-.5V15.5c0-.2.1-.4.2-.5.1-.1.3-.2.5-.2h6.8c.4,0,.7.2.8.5l15.6,25.7c.1.1.2.2.2.2.1,0,.1-.1.1-.3l-.1-25.3c0-.3,0-.5.2-.7Z"/>
    <path class="b" d="M194.2,55.6c-2.4-1.2-4.2-2.9-5.5-5.1-1.3-2.2-2-4.7-2-7.6V15.5c0-.2.1-.4.2-.5.1-.1.3-.2.5-.2h7.1c.2,0,.4.1.5.2.1.1.2.3.2.5v27.5c0,2.1.7,3.8,2,5.2,1.3,1.3,3,2,5.2,2s3.8-.7,5.2-2c1.3-1.3,2-3,2-5.2V15.5c0-.2.1-.4.2-.5.1-.1.3-.2.5-.2h7.1c.2,0,.4.1.5.2.1.1.2.3.2.5v27.5c0,2.9-.7,5.4-2,7.6-1.3,2.2-3.1,3.9-5.5,5.1-2.4,1.2-5.1,1.8-8.2,1.8-3.2-.1-5.9-.7-8.2-1.9Z"/>
    <path class="b" d="M231,55.9c-2.4-1-4.3-2.5-5.6-4.4s-2-4.1-2-6.7v-1.3c0-.2.1-.4.2-.5.1-.1.3-.2.5-.2h6.9c.2,0,.4.1.5.2.1.1.2.3.2.5v.9c0,1.6.7,3,2.2,4.1s3.5,1.7,6,1.7c2.1,0,3.7-.5,4.8-1.4,1-.9,1.6-2,1.6-3.3,0-1-.3-1.8-1-2.4-.6-.7-1.5-1.2-2.6-1.7s-2.9-1.2-5.3-2.1c-2.7-.9-5-1.9-6.8-2.8-1.9-1-3.4-2.3-4.7-3.9-1.3-1.7-1.9-3.7-1.9-6.2s.6-4.5,1.9-6.3c1.2-1.8,3-3.2,5.2-4.2,2.2-1,4.8-1.4,7.7-1.4,3.1,0,5.8.5,8.2,1.6,2.4,1.1,4.3,2.6,5.6,4.6,1.3,1.9,2,4.2,2,6.8v.9c0,.2-.1.4-.2.5-.1.1-.3.2-.5.2h-6.9c-.2,0-.4-.1-.5-.2s-.2-.3-.2-.5v-.5c0-1.7-.7-3.1-2.1-4.3-1.4-1.2-3.3-1.8-5.7-1.8-1.9,0-3.4.4-4.4,1.2-1.1.8-1.6,1.9-1.6,3.3,0,1,.3,1.9.9,2.5.6.7,1.5,1.3,2.8,1.8,1.2.5,3.1,1.3,5.7,2.2,2.9,1,5.1,2,6.7,2.8,1.6.8,3.1,2,4.4,3.6,1.3,1.6,2,3.6,2,6.2,0,3.8-1.4,6.8-4.2,9s-6.5,3.3-11.3,3.3c-3.3-.3-6.1-.8-8.5-1.8Z"/>
    <path class="b" d="M286.9,56.3l-1.8-5.9c-.1-.2-.2-.2-.3-.2h-14.8c-.1,0-.2.1-.3.2l-1.7,5.9c-.1.4-.4.6-.8.6h-7.7c-.2,0-.4-.1-.5-.2-.1-.1-.1-.4-.1-.6l13-40.8c.1-.4.4-.6.8-.6h9.5c.4,0,.7.2.8.6l13,40.8c0,.1.1.2.1.3,0,.4-.2.5-.7.5h-7.7c-.4,0-.7-.2-.8-.6ZM272,43.6h10.6c.2,0,.3-.1.2-.4l-5.4-17.9c0-.2-.1-.2-.2-.2s-.1.1-.2.2l-5.3,17.9c.1.3.1.4.3.4Z"/>
  </g>
  <g>
    <circle class="d" cx="34.1" cy="35.6" r="33.1"/>
    <circle class="e" cx="34.1" cy="35.6" r="29"/>
    <path class="c" d="M35.1,14c4.4,0,7.9,1.1,10.3,3.3,2.5,2.2,3.7,5.5,3.7,9.8,0,1.6-.2,3-.6,4.3-.4,1.3-.9,2.4-1.5,3.3-.6.9-1.3,1.6-2.1,2.2-.8.6-1.5,1-2.3,1.2l7.8,19.5h-10.8l-6.1-17.4h-3v17.4h-9.9V14h14.5Z"/>
    <polygon class="f" points="27.2 36.1 29.5 28.6 23.3 23.9 31.1 23.7 33.6 16.4 36.1 23.7 43.9 23.9 37.7 28.6 39.9 36.1 33.6 31.6 27.2 36.1"/>
  </g>
</svg>